<?xml version="1.0" encoding="utf-8" ?>
<svg baseProfile="tiny" height="1600px" version="1.2" width="1800px" xmlns="http://www.w3.org/2000/svg" xmlns:ev="http://www.w3.org/2001/xml-events" xmlns:xlink="http://www.w3.org/1999/xlink"><defs /><rect fill="#FAFAFA" height="1600px" width="1800px" x="0" y="0" /><text fill="#1E1E1E" font-family="Inter, sans-serif" font-size="34px" font-weight="bold" x="60" y="80">Trail Mix — Music Nerd v1 Style Guide (Fixed Layout)</text><g><rect fill="#FFFFFF" height="420" rx="20" ry="20" stroke="#6D5E77" stroke-width="0.8" width="1680" x="60" y="120" /><text fill="#1E1E1E" font-family="Inter, sans-serif" font-size="22px" font-weight="bold" x="84" y="164">Color Palette</text></g><rect fill="#FF4EB6" height="110px" rx="14" ry="14" stroke="#6D5E77" stroke-width="0.4" width="180px" x="84" y="204" /><text fill="#1E1E1E" font-family="Inter, sans-serif" font-size="13px" x="84" y="344">Primary Pink</text><text fill="#6D5E77" font-family="Inter, sans-serif" font-size="12px" x="84" y="364">#FF4EB6</text><rect fill="#6D5E77" height="110px" rx="14" ry="14" stroke="#6D5E77" stroke-width="0.4" width="180px" x="294" y="204" /><text fill="#1E1E1E" font-family="Inter, sans-serif" font-size="13px" x="294" y="344">Lavender Gray</text><text fill="#6D5E77" font-family="Inter, sans-serif" font-size="12px" x="294" y="364">#6D5E77</text><rect fill="#1E1E1E" height="110px" rx="14" ry="14" stroke="#6D5E77" stroke-width="0.4" width="180px" x="504" y="204" /><text fill="#1E1E1E" font-family="Inter, sans-serif" font-size="13px" x="504" y="344">Dark Text</text><text fill="#6D5E77" font-family="Inter, sans-serif" font-size="12px" x="504" y="364">#1E1E1E</text><rect fill="#FAFAFA" height="110px" rx="14" ry="14" stroke="#6D5E77" stroke-width="0.4" width="180px" x="714" y="204" /><text fill="#1E1E1E" font-family="Inter, sans-serif" font-size="13px" x="714" y="344">Background</text><text fill="#6D5E77" font-family="Inter, sans-serif" font-size="12px" x="714" y="364">#FAFAFA</text><rect fill="#2ECC71" height="110px" rx="14" ry="14" stroke="#6D5E77" stroke-width="0.4" width="180px" x="84" y="394" /><text fill="#1E1E1E" font-family="Inter, sans-serif" font-size="13px" x="84" y="534">Success</text><text fill="#6D5E77" font-family="Inter, sans-serif" font-size="12px" x="84" y="554">#2ECC71</text><rect fill="#F5B82E" height="110px" rx="14" ry="14" stroke="#6D5E77" stroke-width="0.4" width="180px" x="294" y="394" /><text fill="#1E1E1E" font-family="Inter, sans-serif" font-size="13px" x="294" y="534">Warning</text><text fill="#6D5E77" font-family="Inter, sans-serif" font-size="12px" x="294" y="554">#F5B82E</text><rect fill="#E74C3C" height="110px" rx="14" ry="14" stroke="#6D5E77" stroke-width="0.4" width="180px" x="504" y="394" /><text fill="#1E1E1E" font-family="Inter, sans-serif" font-size="13px" x="504" y="534">Error</text><text fill="#6D5E77" font-family="Inter, sans-serif" font-size="12px" x="504" y="554">#E74C3C</text><rect fill="#FFFFFF" height="110px" rx="14" ry="14" stroke="#6D5E77" stroke-width="0.4" width="180px" x="714" y="394" /><text fill="#1E1E1E" font-family="Inter, sans-serif" font-size="13px" x="714" y="534">White</text><text fill="#6D5E77" font-family="Inter, sans-serif" font-size="12px" x="714" y="554">#FFFFFF</text><g><rect fill="#FFFFFF" height="420" rx="20" ry="20" stroke="#6D5E77" stroke-width="0.8" width="820" x="60" y="560" /><text fill="#1E1E1E" font-family="Inter, sans-serif" font-size="22px" font-weight="bold" x="84" y="604">Typography</text></g><text fill="#6D5E77" font-family="Inter, sans-serif" font-size="13px" x="84" y="644">Font: Inter (fallback: -apple-system, BlinkMacSystemFont, Segoe UI, Helvetica, Arial, sans-serif)</text><text fill="#1E1E1E" font-family="Inter, sans-serif" font-size="18px" x="84" y="684">H1 / App Title — 20px, Bold</text><text fill="#1E1E1E" font-family="Inter, sans-serif" font-size="20px" font-weight="bold" x="84" y="712">Trail Mix</text><text fill="#1E1E1E" font-family="Inter, sans-serif" font-size="14px" x="84" y="754">H2 / Section — 14px, Uppercase</text><text fill="#6D5E77" font-family="Inter, sans-serif" font-size="14px" x="84" y="780">DOWNLOAD PROGRESS</text><text fill="#1E1E1E" font-family="Inter, sans-serif" font-size="14px" x="84" y="820">Body / Status — 14px, Regular</text><text fill="#1E1E1E" font-family="Inter, sans-serif" font-size="14px" x="84" y="846">Connected to Bandcamp</text><text fill="#1E1E1E" font-family="Inter, sans-serif" font-size="12px" x="84" y="886">Caption / Helper — 12px, Regular</text><text fill="#6D5E77" font-family="Inter, sans-serif" font-size="12px" x="84" y="908">Personal archival use only. Respect Bandcamp’s terms of service.</text><g><rect fill="#FFFFFF" height="420" rx="20" ry="20" stroke="#6D5E77" stroke-width="0.8" width="820" x="920" y="560" /><text fill="#1E1E1E" font-family="Inter, sans-serif" font-size="22px" font-weight="bold" x="944" y="604">Components</text></g><text fill="#6D5E77" font-family="Inter, sans-serif" font-size="13px" x="944" y="644">Buttons</text><rect fill="#FF4EB6" height="48px" rx="12" ry="12" width="260px" x="944" y="660" /><text fill="#FFFFFF" font-family="Inter, sans-serif" font-size="16px" x="966" y="690">Start Download</text><rect fill="#F5B82E" height="48px" rx="12" ry="12" width="140px" x="1224" y="660" /><text fill="#FFFFFF" font-family="Inter, sans-serif" font-size="16px" x="1272" y="690">Pause</text><rect fill="#E74C3C" height="48px" rx="12" ry="12" width="170px" x="1374" y="660" /><text fill="#FFFFFF" font-family="Inter, sans-serif" font-size="16px" x="1382" y="690">Cancel &amp; Reset</text><text fill="#6D5E77" font-family="Inter, sans-serif" font-size="12px" x="944" y="720">48px height • 12px radius • H padding 16–24px</text><text fill="#6D5E77" font-family="Inter, sans-serif" font-size="13px" x="944" y="764">Progress Bar</text><rect fill="#6D5E77" height="22px" opacity="0.2" rx="11" ry="11" width="520px" x="944" y="780" /><rect fill="#FF4EB6" height="22px" rx="11" ry="11" width="200px" x="944" y="780" /><text fill="#6D5E77" font-family="Inter, sans-serif" font-size="12px" x="944" y="812">Rounded pill • Track: lavender 20% • Fill: pink</text><g><rect fill="#FFFFFF" height="520" rx="20" ry="20" stroke="#6D5E77" stroke-width="0.8" width="1680" x="60" y="1000" /><text fill="#1E1E1E" font-family="Inter, sans-serif" font-size="22px" font-weight="bold" x="84" y="1044">Layout System</text></g><text fill="#6D5E77" font-family="Inter, sans-serif" font-size="13px" x="84" y="1084">Grid: 16px base spacing • Card radius: 16px • Shadow: 0 1px 3px @ 8%</text><rect fill="#FFFFFF" height="160px" rx="16" ry="16" stroke="#6D5E77" stroke-width="0.8" width="540px" x="84" y="1124" /><text fill="#1E1E1E" font-family="Inter, sans-serif" font-size="18px" font-weight="bold" x="100" y="1168">Card Title</text><text fill="#6D5E77" font-family="Inter, sans-serif" font-size="13px" x="100" y="1198">Optional descriptive copy wraps to two lines…</text></svg>